<svg width="67" height="67" viewBox="0 0 67 67" fill="none" xmlns="http://www.w3.org/2000/svg">
<path fill-rule="evenodd" clip-rule="evenodd" d="M0 24.1862L24.1862 0L37.4884 13.3022L13.3022 37.4884L0 24.1862ZM4.83656 24.1862L13.3022 32.6519L32.6519 13.3022L24.1862 4.83656L4.83656 24.1862Z" fill="white"/>
<path fill-rule="evenodd" clip-rule="evenodd" d="M13.3022 32.6519L32.6519 13.3022L62.8838 43.5358C64.1776 44.801 65.2076 46.3103 65.9141 47.9763C66.6206 49.6423 66.9896 51.4319 66.9998 53.2415C67.0099 55.0511 66.6609 56.8447 65.9731 58.5185C65.2853 60.1923 64.2722 61.7131 62.9927 62.9927C61.7131 64.2722 60.1923 65.2853 58.5185 65.9731C56.8447 66.6609 55.0511 67.0099 53.2415 66.9998C51.4319 66.9896 49.6423 66.6206 47.9763 65.9141C46.3103 65.2076 44.801 64.1776 43.5358 62.8838L13.3022 32.6519ZM18.1388 32.6519L45.9541 60.4655C47.8838 62.364 50.4855 63.4231 53.1925 63.4121C55.8995 63.401 58.4925 62.3208 60.4066 60.4066C62.3208 58.4925 63.401 55.8995 63.4121 53.1925C63.4231 50.4855 62.364 47.8838 60.4655 45.9541L32.6519 18.1388L18.1388 32.6519Z" fill="white"/>
<path fill-rule="evenodd" clip-rule="evenodd" d="M26.6045 33.861L39.9067 20.5571L60.4655 41.1159L47.1633 54.4198L26.6045 33.861ZM31.441 33.861L47.1633 49.5816L55.6289 41.1159L39.9067 25.3954L31.441 33.861ZM7.25484 16.9314L19.9534 29.6282L17.5351 32.0465L4.83656 19.348L7.25484 16.9314ZM13.3022 10.884L25.9991 23.5808L23.5808 26.0008L10.884 13.3023L13.3022 10.884ZM19.3479 4.83658L32.0465 17.5351L29.6282 19.9534L16.9297 7.25486L19.3479 4.83658Z" fill="white"/>
<path fill-rule="evenodd" clip-rule="evenodd" d="M36.8078 48.145C35.7149 49.2395 35.0496 50.2143 34.8786 50.7274L31.6326 49.6448C32.067 48.3451 33.2146 46.9016 34.3895 45.7284C35.6072 44.509 37.1139 43.3221 38.5368 42.6106L40.0675 45.6685C39.0721 46.1662 37.8579 47.0966 36.8078 48.145Z" fill="white"/>
</svg>
