<svg width="17" height="17" viewBox="0 0 17 17" fill="none" xmlns="http://www.w3.org/2000/svg">
<path d="M16.1439 2.56821C16.6167 2.09542 16.6167 1.32887 16.1439 0.856071C15.6711 0.383276 14.9046 0.383276 14.4318 0.856071L8.5 6.78786L2.56821 0.856071C2.09542 0.383275 1.32887 0.383276 0.856071 0.856071C0.383276 1.32887 0.383276 2.09542 0.856071 2.56821L6.78786 8.5L0.856071 14.4318C0.383276 14.9046 0.383277 15.6711 0.856072 16.1439C1.32887 16.6167 2.09542 16.6167 2.56821 16.1439L8.5 10.2121L14.4318 16.1439C14.9046 16.6167 15.6711 16.6167 16.1439 16.1439C16.6167 15.6711 16.6167 14.9046 16.1439 14.4318L10.2121 8.5L16.1439 2.56821Z" fill="#158EE2"/>
</svg>
