<svg width="67" height="67" viewBox="0 0 67 67" fill="none" xmlns="http://www.w3.org/2000/svg">
<path d="M22.8203 31.1302C22.5057 31.4415 22.2561 31.8119 22.0857 32.2201C21.9153 32.6282 21.8276 33.066 21.8276 33.5081C21.8276 33.9502 21.9153 34.388 22.0857 34.7961C22.2561 35.2042 22.5057 35.5747 22.8203 35.886C23.449 36.5098 24.2996 36.8599 25.1862 36.8599C26.0728 36.8599 26.9233 36.5098 27.5521 35.886C27.8666 35.5747 28.1163 35.2042 28.2867 34.7961C28.457 34.388 28.5447 33.9502 28.5447 33.5081C28.5447 33.066 28.457 32.6282 28.2867 32.2201C28.1163 31.8119 27.8666 31.4415 27.5521 31.1302C26.9233 30.5064 26.0728 30.1563 25.1862 30.1563C24.2996 30.1563 23.449 30.5064 22.8203 31.1302ZM31.1093 39.4362C30.4843 40.0637 30.1334 40.9125 30.1334 41.7973C30.1334 42.6821 30.4843 43.531 31.1093 44.1585C31.4213 44.4724 31.7924 44.7216 32.2014 44.8916C32.6103 45.0617 33.049 45.1492 33.492 45.1492C33.935 45.1492 34.3736 45.0617 34.7826 44.8916C35.1915 44.7216 35.5627 44.4724 35.8747 44.1585C36.4997 43.531 36.8505 42.6821 36.8505 41.7973C36.8505 40.9125 36.4997 40.0637 35.8747 39.4362C35.5627 39.1222 35.1915 38.8731 34.7826 38.7031C34.3736 38.533 33.935 38.4455 33.492 38.4455C33.049 38.4455 32.6103 38.533 32.2014 38.7031C31.7924 38.8731 31.4213 39.1222 31.1093 39.4362ZM61.3122 5.94427C57.6617 2.27097 52.7323 0.144329 47.5502 0.00707983C42.3681 -0.130169 37.3326 1.73255 33.492 5.20745C29.6691 1.77312 24.6743 -0.0709378 19.5323 0.0536197C14.3902 0.178177 9.49093 2.26191 5.83952 5.87729C2.21187 9.52737 0.123949 14.4262 0.00534332 19.5659C-0.113262 24.7056 1.74647 29.6952 5.2019 33.5081C2.61846 36.3905 0.923284 39.9557 0.319806 43.7758C-0.283672 47.5959 0.230182 51.5087 1.79971 55.0446C3.36923 58.5805 5.92775 61.5892 9.16824 63.7099C12.4087 65.8305 16.1935 66.9729 20.0685 67C25.0359 67.0053 29.8251 65.1532 33.492 61.8087C37.3167 65.2529 42.3187 67.103 47.4687 66.9784C52.6187 66.8538 57.525 64.764 61.178 61.1389C64.801 57.4845 66.8828 52.5832 66.9952 47.4436C67.1076 42.3039 65.2419 37.3168 61.7821 33.5081C65.2419 29.6994 67.1076 24.7123 66.9952 19.5726C66.8828 14.4329 64.801 9.53172 61.178 5.87729L61.3122 5.94427ZM56.4127 10.6331C58.7464 13.0291 60.0988 16.209 60.2043 19.5488C60.3099 22.8887 59.161 26.1473 56.9832 28.6853L38.3245 10.0638C40.8898 7.9395 44.1449 6.8248 47.4766 6.92967C50.8083 7.03454 53.9866 8.35175 56.4127 10.6331ZM10.5713 56.3831C8.23753 53.9871 6.88517 50.8072 6.77962 47.4674C6.67407 44.1275 7.82295 40.8689 10.0008 38.3309L28.7938 57.0864C26.2 59.2232 22.9089 60.3326 19.5481 60.2029C16.1873 60.0732 12.9919 58.7135 10.5713 56.3831ZM56.4127 56.3831C53.8647 58.8151 50.4748 60.1725 46.9491 60.1725C43.4233 60.1725 40.0335 58.8151 37.4855 56.3831L10.6384 29.5895C8.13829 27.0795 6.73497 23.6841 6.73497 20.1448C6.73497 16.6056 8.13829 13.2102 10.6384 10.7001C13.1535 8.20496 16.5557 6.80444 20.102 6.80444C23.6483 6.80444 27.0505 8.20496 29.5656 10.7001L56.4127 37.4936C58.9128 40.0037 60.3161 43.3991 60.3161 46.9383C60.3161 50.4776 58.9128 53.873 56.4127 56.3831ZM39.4319 31.1302C39.1174 31.4415 38.8677 31.8119 38.6973 32.2201C38.5269 32.6282 38.4392 33.066 38.4392 33.5081C38.4392 33.9502 38.5269 34.388 38.6973 34.7961C38.8677 35.2042 39.1174 35.5747 39.4319 35.886C40.0607 36.5098 40.9112 36.8599 41.7978 36.8599C42.6844 36.8599 43.5349 36.5098 44.1637 35.886C44.4782 35.5747 44.7279 35.2042 44.8983 34.7961C45.0686 34.388 45.1564 33.9502 45.1564 33.5081C45.1564 33.066 45.0686 32.6282 44.8983 32.2201C44.7279 31.8119 44.4782 31.4415 44.1637 31.1302C43.5349 30.5064 42.6844 30.1563 41.7978 30.1563C40.9112 30.1563 40.0607 30.5064 39.4319 31.1302ZM31.1093 22.8577C30.4843 23.4852 30.1334 24.334 30.1334 25.2189C30.1334 26.1037 30.4843 26.9525 31.1093 27.58C31.4213 27.8939 31.7924 28.1431 32.2014 28.3131C32.6103 28.4832 33.049 28.5707 33.492 28.5707C33.935 28.5707 34.3736 28.4832 34.7826 28.3131C35.1915 28.1431 35.5627 27.8939 35.8747 27.58C36.4997 26.9525 36.8505 26.1037 36.8505 25.2189C36.8505 24.334 36.4997 23.4852 35.8747 22.8577C35.5627 22.5438 35.1915 22.2946 34.7826 22.1246C34.3736 21.9545 33.935 21.867 33.492 21.867C33.049 21.867 32.6103 21.9545 32.2014 22.1246C31.7924 22.2946 31.4213 22.5438 31.1093 22.8577Z" fill="white"/>
</svg>
