<svg width="60" height="67" viewBox="0 0 60 67" fill="none" xmlns="http://www.w3.org/2000/svg">
<path d="M50 53.6C49.1159 53.6 48.2681 53.9529 47.643 54.5812C47.0179 55.2094 46.6667 56.0615 46.6667 56.95C46.6667 57.8385 46.3155 58.6906 45.6904 59.3188C45.0652 59.9471 44.2174 60.3 43.3333 60.3H10C9.11594 60.3 8.2681 59.9471 7.64298 59.3188C7.01786 58.6906 6.66667 57.8385 6.66667 56.95V10.05C6.66667 9.16152 7.01786 8.30944 7.64298 7.68119C8.2681 7.05295 9.11594 6.7 10 6.7H26.6667V16.75C26.6667 19.4154 27.7202 21.9717 29.5956 23.8564C31.471 25.7412 34.0145 26.8 36.6667 26.8H46.6667V30.15C46.6667 31.0385 47.0179 31.8906 47.643 32.5188C48.2681 33.1471 49.1159 33.5 50 33.5C50.8841 33.5 51.7319 33.1471 52.357 32.5188C52.9821 31.8906 53.3333 31.0385 53.3333 30.15V23.249C53.2986 22.9412 53.2316 22.6381 53.1333 22.3445C53.1475 22.2445 53.1475 22.143 53.1333 22.043C52.9731 21.6986 52.7593 21.3819 52.5 21.105L32.5 1.005C32.2244 0.744424 31.9094 0.529571 31.5667 0.3685H31.2333C30.9189 0.199094 30.5822 0.0750428 30.2333 0H10C7.34784 0 4.8043 1.05884 2.92893 2.94358C1.05357 4.82832 0 7.38457 0 10.05V56.95C0 59.6154 1.05357 62.1717 2.92893 64.0564C4.8043 65.9412 7.34784 67 10 67H43.3333C45.9855 67 48.529 65.9412 50.4044 64.0564C52.2798 62.1717 53.3333 59.6154 53.3333 56.95C53.3333 56.0615 52.9821 55.2094 52.357 54.5812C51.7319 53.9529 50.8841 53.6 50 53.6ZM33.3333 11.4235L41.9667 20.1H36.6667C35.7826 20.1 34.9348 19.7471 34.3096 19.1188C33.6845 18.4906 33.3333 17.6385 33.3333 16.75V11.4235ZM56.6667 40.2H48.3333C47.8946 40.1974 47.4598 40.282 47.0536 40.4487C46.6475 40.6154 46.2781 40.861 45.9667 41.1715L41.8333 45.359L32.5 34.639C32.1998 34.2933 31.8321 34.0133 31.4197 33.8163C31.0074 33.6193 30.5591 33.5096 30.1028 33.4939C29.6465 33.4782 29.1919 33.5569 28.7671 33.725C28.3423 33.8932 27.9564 34.1473 27.6333 34.4715L21.9667 40.2H16.6667C15.7826 40.2 14.9348 40.5529 14.3096 41.1812C13.6845 41.8094 13.3333 42.6615 13.3333 43.55C13.3333 44.4385 13.6845 45.2906 14.3096 45.9188C14.9348 46.5471 15.7826 46.9 16.6667 46.9H23.3333C23.772 46.9025 24.2069 46.818 24.613 46.6513C25.0191 46.4846 25.3885 46.239 25.7 45.9285L30 41.741L39.3333 52.461C39.6344 52.8059 40.0028 53.085 40.4157 53.2809C40.8285 53.4768 41.277 53.5854 41.7333 53.6C42.172 53.6025 42.6069 53.518 43.013 53.3513C43.4191 53.1846 43.7885 52.939 44.1 52.6285L49.7 46.9H56.6667C57.5507 46.9 58.3986 46.5471 59.0237 45.9188C59.6488 45.2906 60 44.4385 60 43.55C60 42.6615 59.6488 41.8094 59.0237 41.1812C58.3986 40.5529 57.5507 40.2 56.6667 40.2Z" fill="white"/>
</svg>
