<svg width="80" height="80" viewBox="0 0 80 80" fill="none" xmlns="http://www.w3.org/2000/svg">
<path d="M36.6667 50V56.6667C36.6667 57.6111 36.9867 58.4033 37.6267 59.0433C38.2667 59.6833 39.0578 60.0022 40 60C40.9444 60 41.7367 59.68 42.3767 59.04C43.0167 58.4 43.3355 57.6089 43.3333 56.6667V50H50C50.9444 50 51.7367 49.68 52.3767 49.04C53.0167 48.4 53.3356 47.6089 53.3333 46.6667C53.3333 45.7222 53.0133 44.9311 52.3733 44.2933C51.7333 43.6556 50.9422 43.3355 50 43.3333H43.3333V36.6667C43.3333 35.7222 43.0133 34.9311 42.3733 34.2933C41.7333 33.6555 40.9422 33.3355 40 33.3333C39.0555 33.3333 38.2644 33.6533 37.6267 34.2933C36.9889 34.9333 36.6689 35.7244 36.6667 36.6667V43.3333H30C29.0555 43.3333 28.2644 43.6533 27.6267 44.2933C26.9889 44.9333 26.6689 45.7244 26.6667 46.6667C26.6667 47.6111 26.9867 48.4033 27.6267 49.0433C28.2667 49.6833 29.0578 50.0022 30 50H36.6667ZM13.3333 73.3333C11.5 73.3333 9.9311 72.6811 8.62666 71.3767C7.32221 70.0722 6.66888 68.5022 6.66666 66.6667V26.6667C6.66666 24.8333 7.31999 23.2644 8.62666 21.96C9.93332 20.6555 11.5022 20.0022 13.3333 20H26.6667V13.3333C26.6667 11.5 27.32 9.9311 28.6267 8.62666C29.9333 7.32221 31.5022 6.66888 33.3333 6.66666H46.6667C48.5 6.66666 50.07 7.31999 51.3767 8.62666C52.6833 9.93332 53.3356 11.5022 53.3333 13.3333V20H66.6667C68.5 20 70.07 20.6533 71.3767 21.96C72.6833 23.2667 73.3356 24.8355 73.3333 26.6667V66.6667C73.3333 68.5 72.6811 70.07 71.3767 71.3767C70.0722 72.6833 68.5022 73.3356 66.6667 73.3333H13.3333ZM13.3333 66.6667H66.6667V26.6667H13.3333V66.6667ZM33.3333 20H46.6667V13.3333H33.3333V20Z" fill="white"/>
</svg>
