<svg width="26" height="17" viewBox="0 0 26 17" fill="none" xmlns="http://www.w3.org/2000/svg">
<path d="M0 15.5833C0 16.3657 0.634263 17 1.41667 17H24.5833C25.3657 17 26 16.3657 26 15.5833C26 14.8009 25.3657 14.1667 24.5833 14.1667H1.41667C0.634263 14.1667 0 14.8009 0 15.5833ZM0 8.5C0 9.2824 0.634263 9.91667 1.41667 9.91667H24.5833C25.3657 9.91667 26 9.2824 26 8.5C26 7.7176 25.3657 7.08333 24.5833 7.08333H1.41667C0.634263 7.08333 0 7.7176 0 8.5ZM1.41667 0C0.634263 0 0 0.634263 0 1.41667C0 2.19907 0.634263 2.83333 1.41667 2.83333H24.5833C25.3657 2.83333 26 2.19907 26 1.41667C26 0.634263 25.3657 0 24.5833 0H1.41667Z" fill="white"/>
</svg>
