<svg width="28" height="27" viewBox="0 0 28 27" fill="none" xmlns="http://www.w3.org/2000/svg">
<g filter="url(#filter0_d_101_13332)">
<path d="M6.66659 18.3332C6.16242 18.3332 5.73097 18.1538 5.37225 17.7951C5.01353 17.4364 4.83386 17.0046 4.83325 16.4998V5.49984C4.83325 4.99567 5.01292 4.56423 5.37225 4.2055C5.73159 3.84678 6.16303 3.66712 6.66659 3.6665H21.3333C21.8374 3.6665 22.2692 3.84617 22.6285 4.2055C22.9878 4.56484 23.1672 4.99628 23.1666 5.49984V16.4998C23.1666 17.004 22.9872 17.4358 22.6285 17.7951C22.2698 18.1544 21.838 18.3338 21.3333 18.3332H6.66659ZM13.9999 11.9165L6.66659 7.33317V16.4998H21.3333V7.33317L13.9999 11.9165ZM13.9999 10.0832L21.3333 5.49984H6.66659L13.9999 10.0832ZM6.66659 7.33317V5.49984V16.4998V7.33317Z" fill="#158EE2"/>
</g>
<defs>
<filter id="filter0_d_101_13332" x="-1" y="0" width="30" height="30" filterUnits="userSpaceOnUse" color-interpolation-filters="sRGB">
<feFlood flood-opacity="0" result="BackgroundImageFix"/>
<feColorMatrix in="SourceAlpha" type="matrix" values="0 0 0 0 0 0 0 0 0 0 0 0 0 0 0 0 0 0 127 0" result="hardAlpha"/>
<feOffset dy="4"/>
<feGaussianBlur stdDeviation="2"/>
<feComposite in2="hardAlpha" operator="out"/>
<feColorMatrix type="matrix" values="0 0 0 0 0 0 0 0 0 0 0 0 0 0 0 0 0 0 0.25 0"/>
<feBlend mode="normal" in2="BackgroundImageFix" result="effect1_dropShadow_101_13332"/>
<feBlend mode="normal" in="SourceGraphic" in2="effect1_dropShadow_101_13332" result="shape"/>
</filter>
</defs>
</svg>
