<svg width="21" height="21" viewBox="0 0 21 21" fill="none" xmlns="http://www.w3.org/2000/svg">
<path d="M14.315 12.25C14.385 11.6725 14.4375 11.095 14.4375 10.5C14.4375 9.905 14.385 9.3275 14.315 8.75H17.2725C17.4125 9.31 17.5 9.89625 17.5 10.5C17.5 11.1038 17.4125 11.69 17.2725 12.25M12.7663 17.115C13.2913 16.1437 13.6938 15.0938 13.9738 14H16.555C15.7073 15.4597 14.3623 16.5655 12.7663 17.115ZM12.5475 12.25H8.4525C8.365 11.6725 8.3125 11.095 8.3125 10.5C8.3125 9.905 8.365 9.31875 8.4525 8.75H12.5475C12.6263 9.31875 12.6875 9.905 12.6875 10.5C12.6875 11.095 12.6263 11.6725 12.5475 12.25ZM10.5 17.465C9.77375 16.415 9.1875 15.2513 8.82875 14H12.1712C11.8125 15.2513 11.2262 16.415 10.5 17.465ZM7 7H4.445C5.284 5.53631 6.62795 4.4288 8.225 3.885C7.7 4.85625 7.30625 5.90625 7 7ZM4.445 14H7C7.30625 15.0938 7.7 16.1437 8.225 17.115C6.6313 16.5652 5.28924 15.4593 4.445 14ZM3.7275 12.25C3.5875 11.69 3.5 11.1038 3.5 10.5C3.5 9.89625 3.5875 9.31 3.7275 8.75H6.685C6.615 9.3275 6.5625 9.905 6.5625 10.5C6.5625 11.095 6.615 11.6725 6.685 12.25M10.5 3.52625C11.2262 4.57625 11.8125 5.74875 12.1712 7H8.82875C9.1875 5.74875 9.77375 4.57625 10.5 3.52625ZM16.555 7H13.9738C13.6999 5.91628 13.2944 4.87016 12.7663 3.885C14.3763 4.43625 15.715 5.5475 16.555 7ZM10.5 1.75C5.66125 1.75 1.75 5.6875 1.75 10.5C1.75 12.8206 2.67187 15.0462 4.31282 16.6872C5.12533 17.4997 6.08992 18.1442 7.15152 18.5839C8.21312 19.0237 9.35093 19.25 10.5 19.25C12.8206 19.25 15.0462 18.3281 16.6872 16.6872C18.3281 15.0462 19.25 12.8206 19.25 10.5C19.25 9.35093 19.0237 8.21312 18.5839 7.15152C18.1442 6.08992 17.4997 5.12533 16.6872 4.31282C15.8747 3.5003 14.9101 2.85578 13.8485 2.41605C12.7869 1.97633 11.6491 1.75 10.5 1.75Z" fill="#158EE2"/>
</svg>
